HIERARCHY
ROOT hip
{
	OFFSET 0.000000 0.000000 0.000000
	CHANNELS 6 Xposition Yposition Zposition Xrotation Zrotation Yrotation 
	JOINT abdomen
	{
		OFFSET 0.000000 3.422050 0.000000
		CHANNELS 3 Xrotation Zrotation Yrotation 
		JOINT chest
		{
			OFFSET 0.000000 8.486693 -0.684411
			CHANNELS 3 Xrotation Zrotation Yrotation 
			JOINT neck
			{
				OFFSET 0.000000 10.266162 -0.273764
				CHANNELS 3 Xrotation Zrotation Yrotation 
				JOINT head
				{
					OFFSET 0.000000 3.148285 0.000000
					CHANNELS 3 Xrotation Zrotation Yrotation 
					End Site
					{
						OFFSET 0.000000 3.148289 0.000000
					}
				}
			}
			JOINT lCollar
			{
				OFFSET 3.422053 6.707223 -0.821293
				CHANNELS 3 Yrotation Zrotation Xrotation 
				JOINT lShldr
				{
					OFFSET 3.285171 0.000000 0.000000
					CHANNELS 3 Zrotation Yrotation Xrotation 
					JOINT lForeArm
					{
						OFFSET 10.129278 0.000000 0.000000
						CHANNELS 3 Yrotation Zrotation Xrotation 
						JOINT lHand
						{
							OFFSET 8.486692 0.000000 0.000000
							CHANNELS 3 Zrotation Yrotation Xrotation 
							End Site
							{
								OFFSET 4.106464 0.000000 0.000000
							}
						}
					}
				}
			}
			JOINT rCollar
			{
				OFFSET -3.558935 6.707223 -0.821293
				CHANNELS 3 Yrotation Zrotation Xrotation 
				JOINT rShldr
				{
					OFFSET -3.148289 0.000000 0.000000
					CHANNELS 3 Zrotation Yrotation Xrotation 
					JOINT rForeArm
					{
						OFFSET -10.266159 0.000000 0.000000
						CHANNELS 3 Yrotation Zrotation Xrotation 
						JOINT rHand
						{
							OFFSET -8.349810 0.000000 0.000000
							CHANNELS 3 Zrotation Yrotation Xrotation 
							End Site
							{
								OFFSET -4.106464 0.000000 0.000000
							}
						}
					}
				}
			}
		}
	}
	JOINT lThigh
	{
		OFFSET 5.338403 -1.642589 1.368821
		CHANNELS 3 Xrotation Zrotation Yrotation 
		JOINT lShin
		{
			OFFSET -2.053232 -20.121670 0.000000
			CHANNELS 3 Xrotation Zrotation Yrotation 
			JOINT lFoot
			{
				OFFSET 0.000000 -19.300380 -1.231939
				CHANNELS 3 Xrotation Yrotation Zrotation 
				End Site
				{
					OFFSET 0.000000 -2.463878 4.653993
				}
			}
		}
	}
	JOINT rThigh
	{
		OFFSET -5.338403 -1.642589 1.368821
		CHANNELS 3 Xrotation Zrotation Yrotation 
		JOINT rShin
		{
			OFFSET 2.053232 -20.121670 0.000000
			CHANNELS 3 Xrotation Zrotation Yrotation 
			JOINT rFoot
			{
				OFFSET 0.000000 -19.300380 -1.231939
				CHANNELS 3 Xrotation Yrotation Zrotation 
				End Site
				{
					OFFSET 0.000000 -2.463878 4.653993
				}
			}
		}
	}
}
MOTION
Frames: 13
Frame Time: 0.049989
0.000000 43.528500 0.000000 0.000000 0.000000 0.000000 0.000000 0.000000 0.000000 0.000000 0.000000 0.000000 0.000000 0.000000 0.000000 0.000000 0.000000 0.000000 0.000000 0.000000 0.000000 0.000000 0.000000 0.000000 0.000000 0.000000 0.000000 0.000000 0.000000 0.000000 0.000000 0.000000 0.000000 0.000000 0.000000 0.000000 0.000000 0.000000 0.000000 0.000000 0.000000 0.000000 0.000000 0.000000 0.000000 0.000000 0.000000 0.000000 0.000000 0.000000 0.000000 0.000000 0.000000 0.000000 0.000000 0.000000 0.000000 0.000000 0.000000 0.000000 
0.243298 18.414230 21.521797 0.000000 0.000000 180.000000 8.640800 0.017931 -0.028455 35.210564 1.001470 -0.039944 9.998674 0.000000 0.000000 -37.000805 0.000000 0.000000 29.674513 -16.107895 -54.095074 -76.267921 -33.808578 15.417409 -121.656174 -7.284818 51.782639 -9.126499 4.588694 -27.252346 -25.515455 17.560062 -34.425812 71.428368 25.258720 9.650651 104.329887 10.864314 -4.414204 16.004314 -27.663797 -10.505442 -2.000161 7.996829 -0.001332 91.995819 5.000301 -1.004587 60.080761 7.486594 5.157949 0.000000 -6.002029 0.000000 92.997177 -5.000833 -0.002159 60.131287 -7.351541 -4.332790 
0.244222 18.362013 21.613758 0.000000 0.000000 180.000000 9.409169 0.017881 -0.028632 32.699329 1.001283 -0.039876 12.210813 0.000000 0.000000 -37.539120 0.000000 0.000000 28.582476 -15.667610 -52.992393 -75.904312 -33.616096 14.921296 -120.847710 -7.125476 51.845436 -9.470696 3.722585 -26.339291 -25.157631 17.419271 -33.585194 71.232780 25.130598 9.421289 104.329887 10.864315 -4.414203 16.308746 -27.807486 -9.962478 -2.308784 7.766205 -0.008806 92.610710 5.005307 -0.927631 60.292702 7.466083 5.307796 -0.538415 -6.002085 -0.000196 93.612114 -5.000748 -0.002125 60.317169 -7.324802 -4.475005 
0.245147 18.309795 21.705719 0.000000 0.000000 180.000000 10.177918 0.017832 -0.028810 30.174501 1.001098 -0.039799 14.432179 0.000000 0.000000 -38.077553 0.000000 0.000000 27.481081 -15.246547 -51.880417 -75.543442 -33.420971 14.427675 -120.039253 -6.965181 51.906002 -9.828911 2.860809 -25.420485 -24.797640 17.283388 -32.743580 71.037941 25.001753 9.192637 104.329887 10.864315 -4.414204 16.612173 -27.953789 -9.419400 -2.617247 7.535514 -0.015023 93.225792 5.009490 -0.850601 60.504684 7.446119 5.457722 -1.076962 -6.002141 -0.000392 94.227280 -5.000664 -0.002092 60.503067 -7.298516 -4.617306 
0.246071 18.257576 21.797680 0.000000 0.000000 180.000000 10.946980 0.017786 -0.028988 27.638472 1.000917 -0.039714 16.661158 0.000000 0.000000 -38.616096 0.000000 0.000000 26.371042 -14.845338 -50.759884 -75.185387 -33.223251 13.936577 -119.230873 -6.803976 51.964272 -10.201132 2.003862 -24.495768 -24.435591 17.152472 -31.901093 70.843872 24.872204 8.964701 104.329887 10.864314 -4.414204 16.914543 -28.102676 -8.876254 -2.925555 7.304770 -0.019986 93.841072 5.012852 -0.773511 60.716728 7.426703 5.607721 -1.615615 -6.002201 -0.000588 94.842575 -5.000580 -0.002057 60.689045 -7.272686 -4.759689 
0.246995 18.205359 21.889639 0.000000 0.000000 180.000000 11.716285 0.017742 -0.029167 25.093643 1.000738 -0.039620 18.896088 0.000000 0.000000 -39.154724 0.000000 0.000000 25.253107 -14.464565 -49.631523 -74.830109 -33.022938 13.448012 -118.422638 -6.641919 52.020248 -10.587353 1.152250 -23.565006 -24.071627 17.026590 -31.057867 70.650551 24.741951 8.737476 104.329887 10.864314 -4.414204 17.215815 -28.254143 -8.333082 -3.233711 7.073984 -0.023695 94.456444 5.015387 -0.696372 60.928818 7.407839 5.757793 -2.154352 -6.002263 -0.000782 95.457985 -5.000496 -0.002021 60.875092 -7.247316 -4.902153 
0.247920 18.153141 21.981600 0.000000 0.000000 180.000000 12.485761 0.017701 -0.029347 22.542496 1.000564 -0.039518 21.135292 0.000000 0.000000 -39.693405 0.000000 0.000000 24.128075 -14.104783 -48.496140 -74.477669 -32.820095 12.962009 -117.614616 -6.479049 52.073921 -10.987557 0.306476 -22.628075 -23.705856 16.905798 -30.214052 70.458008 24.610996 8.510969 104.329887 10.864314 -4.414204 17.515942 -28.408154 -7.789927 -3.541717 6.843170 -0.026152 95.071922 5.017098 -0.619200 61.140957 7.389524 5.907931 -2.693149 -6.002326 -0.000977 96.073509 -5.000412 -0.001985 61.061188 -7.222404 -5.044694 
0.248844 18.100924 22.073561 0.000000 0.000000 180.000000 13.255343 0.017662 -0.029528 19.987543 1.000394 -0.039409 23.377066 0.000000 0.000000 -40.232132 0.000000 0.000000 22.996763 -13.766476 -47.354549 -74.128075 -32.614746 12.478584 -116.806862 -6.315419 52.125256 -11.401718 -0.532957 -21.684845 -23.338402 16.790140 -29.369766 70.266235 24.479355 8.285179 104.329887 10.864314 -4.414204 17.814871 -28.564676 -7.246828 -3.849577 6.612338 -0.027359 95.687469 5.017982 -0.542006 61.353146 7.371762 6.058133 -3.231981 -6.002391 -0.001170 96.689064 -5.000328 -0.001947 61.247353 -7.197953 -5.187312 
0.249768 18.048704 22.165522 0.000000 0.000000 180.000000 14.024962 0.017626 -0.029708 17.431320 1.000229 -0.039292 25.619698 0.000000 0.000000 -40.770866 0.000000 0.000000 21.860020 -13.450085 -46.207596 -73.781326 -32.406921 11.997753 -115.999481 -6.151072 52.174255 -11.829805 -1.365547 -20.735218 -22.969402 16.679672 -28.525162 70.075226 24.347025 8.060110 104.329887 10.864314 -4.414204 18.112558 -28.723696 -6.703825 -4.157295 6.381499 -0.027318 96.303017 5.018041 -0.464805 61.565365 7.354550 6.208395 -3.770826 -6.002458 -0.001363 97.304642 -5.000245 -0.001909 61.433563 -7.173960 -5.330001 
0.250693 17.996487 22.257483 0.000000 0.000000 180.000000 14.794540 0.017592 -0.029890 14.876368 1.000069 -0.039168 27.861481 0.000000 0.000000 -41.309586 0.000000 0.000000 20.718725 -13.155992 -45.056171 -73.437477 -32.196671 11.519536 -115.192535 -5.986073 52.220909 -12.271772 -2.190793 -19.779097 -22.598984 16.574436 -27.680376 69.885010 24.214024 7.835763 104.329887 10.864313 -4.414202 18.408953 -28.885170 -6.160962 -4.464872 6.150667 -0.026029 96.918564 5.017273 -0.387610 61.777615 7.337890 6.358715 -4.309659 -6.002527 -0.001556 97.920219 -5.000164 -0.001869 61.619808 -7.150426 -5.472760 
0.251617 17.944269 22.349443 0.000000 0.000000 180.000000 15.564017 0.017560 -0.030071 12.325222 0.999916 -0.039037 30.100677 0.000000 0.000000 -41.848270 0.000000 0.000000 19.573772 -12.884519 -43.901150 -73.096512 -31.984015 11.043942 -114.386101 -5.820461 52.265202 -12.727571 -3.008197 -18.816399 -22.227264 16.474463 -26.835537 69.695541 24.080336 7.612137 104.329887 10.864314 -4.414204 18.704014 -29.049078 -5.618276 -4.772315 5.919854 -0.023496 97.534042 5.015680 -0.310435 61.989902 7.321783 6.509086 -4.848455 -6.002596 -0.001747 98.535721 -5.000081 -0.001829 61.806110 -7.127355 -5.615585 
0.252541 17.892052 22.441402 0.000000 0.000000 180.000000 16.333321 0.017531 -0.030253 9.780395 0.999768 -0.038900 32.335613 0.000000 0.000000 -42.386902 0.000000 0.000000 18.426069 -12.635927 -42.743454 -72.758461 -31.768986 10.570986 -113.580215 -5.654284 52.307117 -13.197130 -3.817265 -17.847048 -21.854391 16.379795 -25.990808 69.506844 23.945980 7.389233 104.329887 10.864314 -4.414204 18.997692 -29.215389 -5.075809 -5.079625 5.689070 -0.019719 98.149437 5.013262 -0.233293 62.202225 7.306231 6.659509 -5.387192 -6.002668 -0.001938 99.151154 -5.000001 -0.001787 61.992451 -7.104744 -5.758475 
0.253466 17.839832 22.533363 0.000000 0.000000 180.000000 17.102383 0.017504 -0.030436 7.244360 0.999628 -0.038756 34.564590 0.000000 0.000000 -42.925438 0.000000 0.000000 17.276548 -12.410419 -41.584011 -72.423302 -31.551628 10.100676 -112.774971 -5.487598 52.346657 -13.680384 -4.617508 -16.870998 -21.480484 16.290461 -25.146320 69.318947 23.810968 7.167058 104.329887 10.864314 -4.414204 19.289949 -29.384068 -4.533601 -5.386804 5.458329 -0.014700 98.764694 5.010018 -0.156196 62.414570 7.291231 6.809976 -5.925846 -6.002742 -0.002129 99.766441 -4.999919 -0.001746 62.178833 -7.082596 -5.901427 
